<svg width="50" height="50" viewBox="0 0 50 50" fill="none" xmlns="http://www.w3.org/2000/svg"><path d="M24.9999 10C22.5444 10 20.5555 11.9889 20.5555 14.4444C20.5555 15.4333 20.8777 16.3444 21.4222 17.0889C19.2555 18.3333 17.7777 20.6556 17.7777 23.3333C17.7777 25.5889 18.8222 27.6 20.4555 28.9222C17.1222 30.1 12.2222 35.0889 12.2222 43.8889H37.7777C37.7777 35.0889 32.8777 30.1 29.5444 28.9222C31.1777 27.6 32.2222 25.5889 32.2222 23.3333C32.2222 20.6556 30.7444 18.3333 28.5777 17.0889C29.1222 16.3444 29.4444 15.4333 29.4444 14.4444C29.4444 11.9889 27.4555 10 24.9999 10Z" fill="black" stroke="black" stroke-width="1.5" stroke-linecap="round"/></svg>
