<svg width="50" height="50" viewBox="0 0 50 50" fill="none" xmlns="http://www.w3.org/2000/svg"><path fill-rule="evenodd" clip-rule="evenodd" d="M10 43.6666H40V40.3333H10V43.6666Z" fill="black" stroke="black" stroke-width="1.5" stroke-linejoin="round"/><path fill-rule="evenodd" clip-rule="evenodd" d="M13.8889 35.8889L15.5556 33.1111H34.4445L36.1111 35.8889H13.8889Z" fill="black" stroke="black" stroke-width="1.5" stroke-linejoin="round"/><path fill-rule="evenodd" clip-rule="evenodd" d="M13.3333 40.3333V35.8889H36.6666V40.3333H13.3333Z" fill="black" stroke="black" stroke-width="1.5" stroke-linejoin="round"/><path fill-rule="evenodd" clip-rule="evenodd" d="M15.5557 33.1111V18.6666H34.4446V33.1111H15.5557Z" fill="black" stroke="black" stroke-width="1.5"/><path fill-rule="evenodd" clip-rule="evenodd" d="M15.5555 18.6666L12.2222 15.8889H37.7777L34.4444 18.6666H15.5555Z" fill="black" stroke="black" stroke-width="1.5" stroke-linejoin="round"/><path fill-rule="evenodd" clip-rule="evenodd" d="M12.2222 15.8889V10.3333H16.6666V12.5555H22.2222V10.3333H27.7777V12.5555H33.3333V10.3333H37.7777V15.8889H12.2222Z" fill="black" stroke="black" stroke-width="1.5" stroke-linejoin="round"/><path d="M13.3333 39.7778H36.6666" stroke="white" stroke-linecap="round"/><path d="M14.4443 35.3333H35.5554" stroke="white" stroke-linecap="round"/><path d="M15.5557 33.1111H34.4446" stroke="white" stroke-linecap="round"/><path d="M15.5557 18.6666H34.4446" stroke="white" stroke-linecap="round"/><path d="M12.2222 15.8889H37.7777" stroke="white" stroke-linecap="round"/></svg>
