<svg width="40" height="40" fill="none" xmlns="http://www.w3.org/2000/svg"><path fill="currentColor" d="M20 30h5v5h-5zM20 10h5v5h-5zM20 20h5v5h-5zM20 0h5v5h-5zM30 30h5v5h-5zM30 10h5v5h-5zM30 20h5v5h-5zM30 0h5v5h-5zM10 30h5v5h-5zM10 10h5v5h-5zM10 20h5v5h-5zM10 0h5v5h-5zM0 30h5v5H0zM0 10h5v5H0zM0 20h5v5H0zM0 0h5v5H0zM15 35h5v5h-5zM15 15h5v5h-5zM15 25h5v5h-5zM15 5h5v5h-5zM5 35h5v5H5zM5 15h5v5H5zM5 25h5v5H5zM5 5h5v5H5zM25 35h5v5h-5zM25 15h5v5h-5zM25 25h5v5h-5zM25 5h5v5h-5zM35 35h5v5h-5zM35 15h5v5h-5zM35 25h5v5h-5zM35 5h5v5h-5z"/></svg>
