<svg width="40" height="40" fill="none" xmlns="http://www.w3.org/2000/svg"><path fill="currentColor" d="M20 35h5v5h-5zM20 15h5v5h-5zM20 25h5v5h-5zM20 5h5v5h-5zM30 35h5v5h-5zM30 15h5v5h-5zM30 25h5v5h-5zM30 5h5v5h-5zM10 35h5v5h-5zM10 15h5v5h-5zM10 25h5v5h-5zM10 5h5v5h-5zM0 35h5v5H0zM0 15h5v5H0zM0 25h5v5H0zM0 5h5v5H0zM15 30h5v5h-5zM15 10h5v5h-5zM15 20h5v5h-5zM15 0h5v5h-5zM5 30h5v5H5zM5 10h5v5H5zM5 20h5v5H5zM5 0h5v5H5zM25 30h5v5h-5zM25 10h5v5h-5zM25 20h5v5h-5zM25 0h5v5h-5zM35 30h5v5h-5zM35 10h5v5h-5zM35 20h5v5h-5zM35 0h5v5h-5z"/></svg>
