<svg width="50" height="54" viewBox="0 0 50 54" fill="none" xmlns="http://www.w3.org/2000/svg"><g clip-path="url(#a)"><use href="#c" fill="var(--_c-2)" stroke="var(--_c-1)"/><mask id="b" style="mask-type:alpha" maskUnits="userSpaceOnUse" x="0" y="0" width="25" height="54"><path fill="#fff" d="M0 0h25v54H0z"/></mask><g mask="url(#b)" fill="var(--_c-1)" stroke="var(--_c-1)"><use href="#c"/></g></g><defs><clipPath id="a"><path fill="#fff" d="M0 0h50v54H0z"/></clipPath><path id="c" d="M38.423 41.78H21.818a.205.205 0 0 1-.202-.209V25.604c0-.408-.205-.79-.548-1.014l-1.103-.718-.013-.008-.013-.008c-3.894-2.203-7.523-1.516-8.844 1.102-1.3 2.574-.08 6.518 4.63 10.261.208.166.473.261.743.261h1.687c.107 0 .202.089.202.208v5.883c0 .12-.095.209-.202.209H11.24a.219.219 0 0 1-.129-.049c-5.744-4.65-8.796-8.963-9.995-12.686-1.194-3.706-.562-6.852 1.113-9.248 3.38-4.835 11.107-6.747 17.231-3.768l.505.284a1.2 1.2 0 0 0 1.774-.871l.566-3.704a1.206 1.206 0 0 0-1.187-1.391h-2.79a.205.205 0 0 1-.202-.209V5.124c0-.119.094-.208.201-.208h3.132c.672 0 1.207-.552 1.201-1.219L22.634.71a.205.205 0 0 1 .202-.21h4.94c.108 0 .202.089.202.208v3c0 .663.534 1.208 1.202 1.208h3.138c.107 0 .201.089.201.208v5.014c0 .12-.094.209-.201.209h-3.055c-.722 0-1.273.631-1.194 1.342l.525 4.725v17.858c0 .663.534 1.208 1.202 1.208h3.33c.27 0 .535-.094.743-.26 2.256-1.787 3.773-3.565 4.658-5.196.882-1.625 1.154-3.141.847-4.372-.314-1.255-1.215-2.142-2.5-2.482-1.265-.335-2.864-.136-4.638.659a.278.278 0 0 1-.259-.018.216.216 0 0 1-.113-.19V16.56c0-.084.049-.15.107-.177 6.148-2.774 13.366-.861 16.236 3.853 1.425 2.34 1.82 5.424.431 9.088-1.382 3.648-4.538 7.874-10.215 12.456zM38.074 45.126c1.296 0 2.246.339 2.956.863.714.528 1.22 1.271 1.576 2.136.71 1.723.791 3.832.8 5.375H6.267l-.01-.384c-.039-1.387-.088-3.162.418-4.71.275-.843.71-1.593 1.382-2.164.666-.565 1.601-.984 2.933-1.116h27.083z"></path></defs></svg>
