<svg width="50" height="54" viewBox="0 0 50 54" fill="none" xmlns="http://www.w3.org/2000/svg"><g><path d="M38.4232 41.7795H21.8182C21.711 41.7795 21.6164 41.6906 21.6164 41.5713V25.6041C21.6164 25.1957 21.4109 24.8132 21.0677 24.5899L19.9652 23.8724L19.9523 23.864L19.9388 23.8563C16.0454 21.6528 12.4163 22.3404 11.0952 24.9577C9.79595 27.5316 11.0149 31.4762 15.7247 35.2195C15.9333 35.3854 16.198 35.48 16.468 35.48H18.1554C18.2625 35.48 18.3572 35.5689 18.3572 35.6882V41.5713C18.3572 41.6906 18.2625 41.7795 18.1554 41.7795H11.2401C11.2016 41.7795 11.1507 41.7628 11.1115 41.7311C5.36673 37.0801 2.31528 32.7681 1.11606 29.0448C-0.0775629 25.3388 0.554039 22.1934 2.2292 19.7967C5.60822 14.9622 13.336 13.0501 19.4604 16.0289L19.9653 16.3126C20.7021 16.7267 21.6131 16.2688 21.7395 15.4415L22.3054 11.7382C22.4164 11.0116 21.8593 10.3465 21.1176 10.3465H18.3274C18.2203 10.3465 18.1257 10.2576 18.1257 10.1383V5.12427C18.1257 5.00497 18.2203 4.91608 18.3274 4.91608H21.4588C22.131 4.91608 22.6663 4.3643 22.6605 3.69729L22.6345 0.710068C22.6335 0.589984 22.7285 0.5 22.8362 0.5H27.7764C27.8835 0.5 27.9782 0.588895 27.9782 0.708198V3.70788C27.9782 4.37083 28.5119 4.91608 29.1799 4.91608H32.3175C32.4246 4.91608 32.5193 5.00497 32.5193 5.12427V10.1383C32.5193 10.2576 32.4246 10.3465 32.3175 10.3465H29.263C28.5414 10.3465 27.9897 10.978 28.0687 11.6889L28.5939 16.4137V34.2718C28.5939 34.9347 29.1276 35.48 29.7957 35.48H33.1266C33.3964 35.48 33.6605 35.3857 33.8691 35.2204C36.1253 33.4327 37.6421 31.6546 38.527 30.0239C39.4089 28.3986 39.6812 26.8828 39.374 25.6523C39.0605 24.397 38.159 23.51 36.8733 23.1698C35.6095 22.8354 34.01 23.0342 32.2356 23.8286C32.1509 23.8665 32.0548 23.8578 31.9772 23.8108C31.9026 23.7656 31.8645 23.6986 31.8645 23.6216V16.5591C31.8645 16.4755 31.9125 16.4088 31.9715 16.3821C38.1186 13.6076 45.3365 15.5209 48.2073 20.2354C49.6321 22.5752 50.0265 25.659 48.6382 29.3225C47.2556 32.9709 44.1005 37.1974 38.4232 41.7795Z" fill="var(--_c-1)" stroke="var(--_c-2)"/><path d="M38.0736 45.1255C39.3698 45.1255 40.3203 45.4645 41.0295 45.989C41.7436 46.5171 42.2495 47.2603 42.606 48.1246C43.3169 49.8481 43.3972 51.957 43.4053 53.5H6.26785C6.26488 53.3758 6.26133 53.2476 6.25768 53.1159C6.21924 51.7291 6.17005 49.954 6.67589 48.4059C6.95145 47.5625 7.38517 46.813 8.05785 46.2424C8.72412 45.6772 9.65924 45.2581 10.9913 45.1255H38.0736Z" fill="var(--_c-1)" stroke="var(--_c-2)"/></g></svg>
