<svg width="50" height="50" viewBox="0 0 50 50" fill="none" xmlns="http://www.w3.org/2000/svg"><path fill-rule="evenodd" clip-rule="evenodd" d="M10 43.6666H40V40.3333H10V43.6666Z" fill="white" stroke="black" stroke-width="1.5" stroke-linejoin="round"/><path fill-rule="evenodd" clip-rule="evenodd" d="M13.3333 40.3333V35.8889H36.6666V40.3333H13.3333Z" fill="white" stroke="black" stroke-width="1.5" stroke-linejoin="round"/><path fill-rule="evenodd" clip-rule="evenodd" d="M12.2222 15.8889V10.3333H16.6666V12.5555H22.2222V10.3333H27.7777V12.5555H33.3333V10.3333H37.7777V15.8889" fill="white"/><path d="M12.2222 15.8889V10.3333H16.6666V12.5555H22.2222V10.3333H27.7777V12.5555H33.3333V10.3333H37.7777V15.8889" stroke="black" stroke-width="1.5" stroke-linejoin="round"/><path fill-rule="evenodd" clip-rule="evenodd" d="M37.7777 15.8889L34.4444 19.2222H15.5555L12.2222 15.8889" fill="white"/><path d="M37.7777 15.8889L34.4444 19.2222H15.5555L12.2222 15.8889" stroke="black" stroke-width="1.5" stroke-linecap="round" stroke-linejoin="round"/><path fill-rule="evenodd" clip-rule="evenodd" d="M34.4446 19.2222V33.1111H15.5557V19.2222" fill="white"/><path d="M34.4446 19.2222V33.1111H15.5557V19.2222" stroke="black" stroke-width="1.5"/><path fill-rule="evenodd" clip-rule="evenodd" d="M34.4445 33.1111L36.1111 35.8889H13.8889L15.5556 33.1111" fill="white"/><path d="M34.4445 33.1111L36.1111 35.8889H13.8889L15.5556 33.1111" stroke="black" stroke-width="1.5" stroke-linecap="round" stroke-linejoin="round"/><path d="M12.2222 15.8889H37.7777" stroke="black" stroke-width="1.5" stroke-linecap="round"/></svg>
