<svg width="50" height="50" viewBox="0 0 50 50" fill="none" xmlns="http://www.w3.org/2000/svg"><path fill-rule="evenodd" clip-rule="evenodd" d="M10.0001 40.6667C13.7667 39.5889 21.2334 41.1445 25.0001 38.4445C28.7667 41.1445 36.2334 39.5889 40.0001 40.6667C40.0001 40.6667 41.8334 41.2667 43.3334 42.8889C42.5779 43.9667 41.5001 43.9889 40.0001 43.4445C36.2334 42.3667 28.7667 43.9556 25.0001 42.3333C21.2334 43.9556 13.7667 42.3667 10.0001 43.4445C8.50008 43.9889 7.4223 43.9667 6.66675 42.8889C8.16675 41.2667 10.0001 40.6667 10.0001 40.6667Z" fill="white" stroke="black" stroke-width="1.5" stroke-linejoin="round"/><path fill-rule="evenodd" clip-rule="evenodd" d="M16.6667 36.2222C19.4445 39 30.5556 39 33.3334 36.2222C33.8889 34.5555 33.3334 34 33.3334 34C33.3334 31.2222 30.5556 29.5555 30.5556 29.5555C36.6667 27.8889 37.2223 16.7778 25 12.3333C12.7778 16.7778 13.3334 27.8889 19.4445 29.5555C19.4445 29.5555 16.6667 31.2222 16.6667 34C16.6667 34 16.1112 34.5555 16.6667 36.2222Z" fill="white" stroke="black" stroke-width="1.5" stroke-linejoin="round"/><path fill-rule="evenodd" clip-rule="evenodd" d="M27.778 9.55555C27.778 10.2923 27.4853 10.9988 26.9644 11.5197C26.4434 12.0407 25.7369 12.3333 25.0002 12.3333C24.2635 12.3333 23.5569 12.0407 23.036 11.5197C22.5151 10.9988 22.2224 10.2923 22.2224 9.55555C22.2224 8.81884 22.5151 8.1123 23.036 7.59136C23.5569 7.07043 24.2635 6.77777 25.0002 6.77777C25.7369 6.77777 26.4434 7.07043 26.9644 7.59136C27.4853 8.1123 27.778 8.81884 27.778 9.55555Z" fill="white" stroke="black" stroke-width="1.5" stroke-linejoin="round"/><path d="M19.4445 29.5555H30.5556M16.6667 34H33.3334M25.0001 17.8889V23.4444M22.2223 20.6666H27.7779" stroke="black" stroke-width="1.5" stroke-linecap="round"/></svg>
