<svg width="50" height="50" viewBox="0 0 50 50" fill="none" xmlns="http://www.w3.org/2000/svg"><path fill-rule="evenodd" clip-rule="evenodd" d="M24.4445 11.4444C36.1112 12.5555 42.7779 20.3333 42.2223 43.6666H16.6667C16.6667 33.6666 27.7779 36.4444 25.5556 20.3333" fill="white"/><path d="M24.4445 11.4444C36.1112 12.5555 42.7779 20.3333 42.2223 43.6666H16.6667C16.6667 33.6666 27.7779 36.4444 25.5556 20.3333" stroke="black" stroke-width="1.5" stroke-linecap="round" stroke-linejoin="round"/><path fill-rule="evenodd" clip-rule="evenodd" d="M26.6667 20.3333C27.089 23.5666 20.5001 28.5222 17.7779 30.3333C14.4445 32.5555 14.6445 35.1555 12.2223 34.7778C11.0645 33.7333 13.789 31.4 12.2223 31.4444C11.1112 31.4444 12.4334 32.8111 11.1112 33.6666C10.0001 33.6666 6.66342 34.7778 6.66675 29.2222C6.66675 27 13.3334 15.8889 13.3334 15.8889C13.3334 15.8889 15.4334 13.7778 15.5556 12C14.7445 10.8955 15.0001 9.77775 15.0001 8.66664C16.1112 7.55553 18.3334 11.4444 18.3334 11.4444H20.5556C20.5556 11.4444 21.4223 9.23108 23.3334 8.11108C24.4445 8.11108 24.4445 11.4444 24.4445 11.4444" fill="white"/><path d="M26.6667 20.3333C27.089 23.5666 20.5001 28.5222 17.7779 30.3333C14.4445 32.5555 14.6445 35.1555 12.2223 34.7778C11.0645 33.7333 13.789 31.4 12.2223 31.4444C11.1112 31.4444 12.4334 32.8111 11.1112 33.6666C10.0001 33.6666 6.66342 34.7778 6.66675 29.2222C6.66675 27 13.3334 15.8889 13.3334 15.8889C13.3334 15.8889 15.4334 13.7778 15.5556 12C14.7445 10.8955 15.0001 9.77775 15.0001 8.66664C16.1112 7.55553 18.3334 11.4444 18.3334 11.4444H20.5556C20.5556 11.4444 21.4223 9.23108 23.3334 8.11108C24.4445 8.11108 24.4445 11.4444 24.4445 11.4444" stroke="black" stroke-width="1.5" stroke-linecap="round" stroke-linejoin="round"/><path fill-rule="evenodd" clip-rule="evenodd" d="M10.5557 28.6666C10.5557 28.814 10.4972 28.9553 10.393 29.0595C10.2888 29.1637 10.1475 29.2222 10.0001 29.2222C9.85279 29.2222 9.71148 29.1637 9.6073 29.0595C9.50311 28.9553 9.44458 28.814 9.44458 28.6666C9.44458 28.5193 9.50311 28.378 9.6073 28.2738C9.71148 28.1696 9.85279 28.1111 10.0001 28.1111C10.1475 28.1111 10.2888 28.1696 10.393 28.2738C10.4972 28.378 10.5557 28.5193 10.5557 28.6666Z" fill="black" stroke="black" stroke-width="1.5" stroke-linecap="round" stroke-linejoin="round"/><path fill-rule="evenodd" clip-rule="evenodd" d="M16.5923 17.8333C16.3713 18.2161 16.1086 18.5539 15.8621 18.7725C15.6156 18.9911 15.4054 19.0725 15.2778 18.9989C15.1502 18.9252 15.1156 18.7025 15.1817 18.3797C15.2478 18.0569 15.409 17.6605 15.63 17.2777C15.8511 16.8949 16.1137 16.5571 16.3602 16.3385C16.6067 16.1199 16.8169 16.0385 16.9445 16.1122C17.0721 16.1859 17.1067 16.4086 17.0406 16.7314C16.9746 17.0541 16.8133 17.4505 16.5923 17.8333Z" fill="black" stroke="black" stroke-width="1.5" stroke-linecap="round" stroke-linejoin="round"/></svg>
