<svg width="50" height="50" viewBox="0 0 50 50" fill="none" xmlns="http://www.w3.org/2000/svg"><path d="M9.99995 28.8889C19.4444 27.2223 33.3333 27.2223 39.9999 28.8889L42.7777 15L34.4444 27.7778L34.1111 12.1111L28.3333 27.2223L24.9999 11.1111L21.6666 27.2223L15.8888 12.1111L15.5555 27.7778L7.22217 15L9.99995 28.8889Z" fill="white" stroke="black" stroke-width="1.5" stroke-linejoin="round"/><path d="M10 28.8889C10 31.1111 11.6667 31.1111 12.7778 33.3334C13.8889 35 13.8889 34.4445 13.3333 37.2222C11.6667 38.3334 12.2222 40 12.2222 40C10.5556 41.6667 12.2222 42.7778 12.2222 42.7778C19.4444 43.8889 30.5556 43.8889 37.7778 42.7778C37.7778 42.7778 39.4444 41.6667 37.7778 40C37.7778 40 38.3333 38.3334 36.6667 37.2222C36.1111 34.4445 36.1111 35 37.2222 33.3334C38.3333 31.1111 40 31.1111 40 28.8889C30.5556 27.2222 19.4444 27.2222 10 28.8889Z" fill="white" stroke="black" stroke-width="1.5" stroke-linejoin="round"/><path d="M12.7776 33.3333C16.6665 32.2222 33.3331 32.2222 37.222 33.3333" stroke="black" stroke-width="1.5" stroke-linejoin="round"/><path d="M13.3333 37.2222C19.9999 36.1111 29.9999 36.1111 36.6666 37.2222" stroke="black" stroke-width="1.5" stroke-linejoin="round"/><path d="M6.66656 15.5556C7.89386 15.5556 8.88878 14.5607 8.88878 13.3334C8.88878 12.1061 7.89386 11.1111 6.66656 11.1111C5.43926 11.1111 4.44434 12.1061 4.44434 13.3334C4.44434 14.5607 5.43926 15.5556 6.66656 15.5556Z" fill="white" stroke="black" stroke-width="1.5" stroke-linejoin="round"/><path d="M15.5555 12.2222C16.7828 12.2222 17.7777 11.2273 17.7777 9.99999C17.7777 8.77269 16.7828 7.77777 15.5555 7.77777C14.3282 7.77777 13.3333 8.77269 13.3333 9.99999C13.3333 11.2273 14.3282 12.2222 15.5555 12.2222Z" fill="white" stroke="black" stroke-width="1.5" stroke-linejoin="round"/><path d="M24.9998 11.1111C26.2271 11.1111 27.222 10.1162 27.222 8.88891C27.222 7.66161 26.2271 6.66669 24.9998 6.66669C23.7725 6.66669 22.7776 7.66161 22.7776 8.88891C22.7776 10.1162 23.7725 11.1111 24.9998 11.1111Z" fill="white" stroke="black" stroke-width="1.5" stroke-linejoin="round"/><path d="M34.4444 12.2222C35.6717 12.2222 36.6666 11.2273 36.6666 9.99999C36.6666 8.77269 35.6717 7.77777 34.4444 7.77777C33.2171 7.77777 32.2222 8.77269 32.2222 9.99999C32.2222 11.2273 33.2171 12.2222 34.4444 12.2222Z" fill="white" stroke="black" stroke-width="1.5" stroke-linejoin="round"/><path d="M43.3333 15.5556C44.5606 15.5556 45.5555 14.5607 45.5555 13.3334C45.5555 12.1061 44.5606 11.1111 43.3333 11.1111C42.106 11.1111 41.1111 12.1061 41.1111 13.3334C41.1111 14.5607 42.106 15.5556 43.3333 15.5556Z" fill="white" stroke="black" stroke-width="1.5" stroke-linejoin="round"/></svg>
